<svg id="Component_13_1" data-name="Component 13 – 1" xmlns="http://www.w3.org/2000/svg" width="128" height="128" viewBox="0 0 128 128">
  <rect id="lilly-rum-oAapTASnOgc-unsplash" width="128" height="128" rx="15" fill="#d06eff" opacity="0.06"/>
  <path id="Path_2471" data-name="Path 2471" d="M446.312,212.539a1.329,1.329,0,0,0,1.33-1.33v-3.815a1.33,1.33,0,0,0-2.659,0v3.815A1.329,1.329,0,0,0,446.312,212.539Z" transform="translate(-389.267 -173.845)" fill="#d06eff"/>
  <path id="Path_2472" data-name="Path 2472" d="M446.312,446.259a1.329,1.329,0,0,0-1.33,1.329V451.4a1.33,1.33,0,1,0,2.659,0v-3.815A1.329,1.329,0,0,0,446.312,446.259Z" transform="translate(-389.267 -377.869)" fill="#d06eff"/>
  <path id="Path_2473" data-name="Path 2473" d="M354.188,249.919a1.329,1.329,0,1,0,1.88-1.88l-2.7-2.7a1.329,1.329,0,0,0-1.88,1.88Z" transform="translate(-309.523 -206.876)" fill="#d06eff"/>
  <path id="Path_2474" data-name="Path 2474" d="M318.688,340.158a1.329,1.329,0,0,0-1.33-1.33h-3.815a1.33,1.33,0,0,0,0,2.659h3.815A1.329,1.329,0,0,0,318.688,340.158Z" transform="translate(-276.492 -286.615)" fill="#d06eff"/>
  <path id="Path_2475" data-name="Path 2475" d="M354.18,415.186l-2.7,2.7a1.329,1.329,0,1,0,1.88,1.88l2.7-2.7a1.329,1.329,0,1,0-1.88-1.88Z" transform="translate(-309.516 -351.144)" fill="#d06eff"/>
  <path id="Path_2476" data-name="Path 2476" d="M522.258,250.317a1.325,1.325,0,0,0,.94-.39l2.7-2.7a1.329,1.329,0,0,0-1.88-1.88l-2.7,2.7a1.33,1.33,0,0,0,.94,2.27Z" transform="translate(-453.777 -206.883)" fill="#d06eff"/>
  <path id="Path_2477" data-name="Path 2477" d="M295.6,191.934l-6.683-6.682a2.746,2.746,0,0,0-2.383-.727,55.293,55.293,0,0,0-9.515-13.136l-.622-.622a31.732,31.732,0,0,0-9.2-22.371,29.932,29.932,0,0,0-21.8-8.9,30.777,30.777,0,0,0-30.123,30.637v3.192l-6.448,16.419a2.782,2.782,0,0,0,2.593,3.785h4.763l1.078,13.814a4.676,4.676,0,0,0,4.694,4.341h11.742v10.088a1.329,1.329,0,0,0,1.33,1.33h35.326a1.329,1.329,0,0,0,1.33-1.33V209.75c0-2.064.074-4.078.177-6.065l5.994,6a2.714,2.714,0,0,0,3.838,0L295.6,195.771A2.717,2.717,0,0,0,295.6,191.934Zm-11.291-5.923L271.63,198.686,252.1,191.972a1.747,1.747,0,0,1-1.117-2.085,1.6,1.6,0,0,1,.454-.8,1.763,1.763,0,0,1,1.247-.524,1.68,1.68,0,0,1,.38.043l6.235,1.48a1.33,1.33,0,0,0,1.247-2.234l-15.406-15.407a1.6,1.6,0,0,1,.012-2.238,1.537,1.537,0,0,1,1.1-.453,1.847,1.847,0,0,1,1.132.451l5.254,5.253.008.005,8.379,8.379a1.329,1.329,0,1,0,1.88-1.88l-8.39-8.39h0a1.577,1.577,0,1,1,2.235-2.224l2.189,2.19.017.016c.012.012.028.015.04.026l5.705,5.705a1.329,1.329,0,0,0,1.88-1.88l-5.826-5.826c-.021-.025-.044-.048-.062-.075s-.069-.1-.09-.13a1.623,1.623,0,0,1-.186-.458c0-.017-.005-.034-.009-.051-.009-.053-.018-.1-.025-.172a1.208,1.208,0,0,1,0-.136l.007-.154a1.452,1.452,0,0,1,.075-.338,1.007,1.007,0,0,0,.036-.109,1.473,1.473,0,0,1,.34-.517,1.5,1.5,0,0,1,.578-.367l.128-.041a1.554,1.554,0,0,1,1.528.4l1.32,1.32h0s.011.006.016.011l3.966,3.966a1.329,1.329,0,0,0,1.88-1.88l-4-4a1.581,1.581,0,0,1,.012-2.214,1.8,1.8,0,0,1,.254-.2,1.6,1.6,0,0,1,.861-.258,1.557,1.557,0,0,1,1.122.452l6.639,6.639A53.162,53.162,0,0,1,284.305,186.011ZM252.63,169.471a4.216,4.216,0,0,0-.9,1.328l-2.469-2.47a4.256,4.256,0,0,0-6.048.062,4.267,4.267,0,0,0,.048,5.938l4.349,4.349a8.01,8.01,0,0,1-2.055.27,8.108,8.108,0,1,1,7.826-10.066A4.236,4.236,0,0,0,252.63,169.471Zm16.389,50.973H236.352V210.356a1.329,1.329,0,0,0-1.33-1.33H221.951a2.034,2.034,0,0,1-2.042-1.89l-.4-5.077h7.156a1.33,1.33,0,0,0,0-2.659h-7.363l-.57-7.3a1.33,1.33,0,0,0-1.326-1.226h-5.992l-.113-.165,6.535-16.641a1.325,1.325,0,0,0,.092-.486v-3.444a28.106,28.106,0,0,1,27.51-27.978,27.229,27.229,0,0,1,19.868,8.115,29.1,29.1,0,0,1,8.307,17.714l-1.22-1.223,0,.012-2.015-2.015a4.216,4.216,0,0,0-3.015-1.232,4.278,4.278,0,0,0-2.351.724,4.643,4.643,0,0,0-.634.511,4.183,4.183,0,0,0-1.061,1.781,4.269,4.269,0,0,0-2.511-.066c-.105.03-.209.062-.26.082a4.2,4.2,0,0,0-2.527,2.412,4.247,4.247,0,0,0-2.037-.716,10.753,10.753,0,1,0-10.434,13.353,10.593,10.593,0,0,0,4.138-.846l5.657,5.657-1.683-.4a4.394,4.394,0,0,0-4.109,1.192,4.241,4.241,0,0,0-1.166,2.08,4.392,4.392,0,0,0,2.837,5.192l18.114,6.228c-.217,2.914-.326,5.948-.326,9.038ZM279.73,207.8l-6.683-6.684v-.077l13.985-13.909,6.684,6.76Z" transform="translate(-188.515 -117.299)" fill="#d06eff"/>
</svg>
