<svg id="Component_11_1" data-name="Component 11 – 1" xmlns="http://www.w3.org/2000/svg" width="128" height="128" viewBox="0 0 128 128">
  <rect id="lilly-rum-oAapTASnOgc-unsplash" width="128" height="128" rx="15" fill="#d06eff" opacity="0.06"/>
  <g id="Group_1669" data-name="Group 1669" transform="translate(-2754.801 -2945.657)">
    <g id="Group_1661" data-name="Group 1661" transform="translate(2802.266 2971.371)">
      <g id="Group_1660" data-name="Group 1660" transform="translate(8.686 5.005)">
        <path id="Path_2280" data-name="Path 2280" d="M3116.817,3030.072c-4.807,0-8.165-3.874-8.165-9.421s3.358-9.421,8.165-9.421a1.256,1.256,0,0,1,0,2.512c-4.172,0-5.653,3.722-5.653,6.908s1.48,6.909,5.653,6.909,5.652-3.722,5.652-6.909a9.154,9.154,0,0,0-.595-3.371,1.257,1.257,0,1,1,2.338-.922,11.67,11.67,0,0,1,.769,4.293C3124.981,3026.2,3121.624,3030.072,3116.817,3030.072Z" transform="translate(-3108.652 -3011.229)" fill="#d06eff"/>
        <path id="Path_2281" data-name="Path 2281" d="M3171.224,3018.049a7.889,7.889,0,0,1-7.387-5.162,1.256,1.256,0,0,1,2.372-.827,5.414,5.414,0,0,0,5.015,3.476,1.256,1.256,0,0,1,0,2.512Z" transform="translate(-3156.844 -3011.217)" fill="#d06eff"/>
      </g>
      <path id="Path_2282" data-name="Path 2282" d="M3071.873,2995.043a3.883,3.883,0,0,1-2.767-1.107c-2.168-2.109-2.191-6.615-2.207-9.906,0-.459,0-.878-.013-1.242-.14-5.586-2.844-8.57-8.039-8.866l-3.4-.037c-3.6-.039-9.4,2.353-9.625,8.914-.014.4-.018.87-.023,1.384-.029,3.245-.069,7.69-2.209,9.763a3.979,3.979,0,0,1-2.861,1.1,1.256,1.256,0,0,1,.029-2.512h.081a1.341,1.341,0,0,0,1-.391c1.385-1.341,1.423-5.5,1.445-7.98,0-.536.01-1.027.024-1.447.287-8.345,7.559-11.395,12.163-11.34l3.456.039c3.844.218,10.231,1.976,10.466,11.312.009.38.011.817.013,1.294.012,2.522.033,6.743,1.446,8.117a1.3,1.3,0,0,0,1.063.4,1.256,1.256,0,1,1,.059,2.512Z" transform="translate(-3039.504 -2971.372)" fill="#d06eff"/>
    </g>
    <path id="Path_2283" data-name="Path 2283" d="M2949.127,3365.023c-15.92,0-32.036-3.074-32.036-8.951,0-2.043,1.854-3.814,5.513-5.265a4.528,4.528,0,0,1,.6-.216c.061-.017.159-.044.389-.117a1.256,1.256,0,1,1,.762,2.394c-.28.089-.4.122-.473.144s-.152.053-.35.132c-2.9,1.148-3.927,2.267-3.927,2.929,0,2.625,11.5,6.438,29.524,6.438s29.525-3.813,29.525-6.438c0-.667-1.044-1.792-3.973-2.947l-.009,0a2.651,2.651,0,0,1-.577-.138,1.256,1.256,0,1,1,.768-2.392l.047.013a2.119,2.119,0,0,1,.691.183c3.693,1.454,5.564,3.232,5.564,5.283C2981.163,3361.949,2965.047,3365.023,2949.127,3365.023Z" transform="translate(-130.201 -331.432)" fill="#d06eff"/>
    <g id="Group_1663" data-name="Group 1663" transform="translate(2774.621 3030.288)">
      <g id="Group_1662" data-name="Group 1662" transform="translate(11.001 0)">
        <path id="Path_2284" data-name="Path 2284" d="M2908.255,3452.353a1.256,1.256,0,0,1-.655-2.329l15.476-9.421a1.256,1.256,0,0,1,1.306,2.147l-15.476,9.421A1.254,1.254,0,0,1,2908.255,3452.353Z" transform="translate(-2906.997 -3440.42)" fill="#d06eff"/>
      </g>
      <path id="Path_2285" data-name="Path 2285" d="M2827.619,3522.81a16.386,16.386,0,0,1-5-.7c-2.708-.894-3.167-2.324-3.2-3.1-.12-2.856,4.46-4.353,8.767-4.534a17.105,17.105,0,0,1,5.917.684c2.708.894,3.167,2.324,3.2,3.1.12,2.855-4.46,4.352-8.767,4.533Q2828.073,3522.81,2827.619,3522.81Zm1.5-5.842c-.267,0-.543,0-.828.017-4.068.172-6.229,1.48-6.365,1.949.171.4,2.438,1.518,6.5,1.346,3.982-.168,6.137-1.426,6.354-1.919C2834.544,3517.922,2832.584,3516.968,2829.118,3516.968Zm5.678,1.424h0Z" transform="translate(-2819.416 -3505.156)" fill="#d06eff"/>
    </g>
    <g id="Group_1665" data-name="Group 1665" transform="translate(2833.892 3030.288)">
      <g id="Group_1664" data-name="Group 1664" transform="translate(0 0)">
        <path id="Path_2286" data-name="Path 2286" d="M3308.017,3452.354a1.252,1.252,0,0,1-.651-.183l-15.477-9.421a1.256,1.256,0,1,1,1.305-2.147l15.477,9.421a1.256,1.256,0,0,1-.654,2.33Z" transform="translate(-3291.285 -3440.42)" fill="#d06eff"/>
      </g>
      <path id="Path_2287" data-name="Path 2287" d="M3389.353,3522.812q-.453,0-.915-.02c-4.307-.181-8.887-1.678-8.767-4.533.032-.773.49-2.2,3.2-3.1a17.12,17.12,0,0,1,5.917-.683c4.307.182,8.887,1.678,8.767,4.534-.032.772-.491,2.2-3.2,3.1A16.377,16.377,0,0,1,3389.353,3522.812Zm-7.164-4.448c.217.493,2.372,1.75,6.354,1.919,4.079.175,6.332-.951,6.506-1.407-.137-.407-2.3-1.716-6.367-1.888C3384.7,3516.825,3382.448,3517.892,3382.189,3518.364Z" transform="translate(-3368.566 -3505.158)" fill="#d06eff"/>
    </g>
    <g id="Group_1666" data-name="Group 1666" transform="translate(2843.805 3011.2)">
      <path id="Path_2288" data-name="Path 2288" d="M3371.461,3298.857a1.256,1.256,0,0,1-.649-2.332l13.1-7.887a1.256,1.256,0,0,1,1.295,2.152l-13.1,7.887A1.239,1.239,0,0,1,3371.461,3298.857Z" transform="translate(-3370.204 -3288.456)" fill="#d06eff"/>
    </g>
    <path id="Path_2289" data-name="Path 2289" d="M3455.2,3256.637a14.389,14.389,0,0,1-4.395-.619c-2.444-.806-2.86-2.123-2.889-2.837h0c-.03-.714.272-2.062,2.64-3.071a15.118,15.118,0,0,1,5.124-1.036c3.825-.168,7.973.845,8.083,3.438.03.714-.272,2.061-2.64,3.072a15.114,15.114,0,0,1-5.125,1.035C3455.73,3256.631,3455.464,3256.637,3455.2,3256.637Zm-4.725-3.563c.418.418,2.272,1.155,5.417,1.036s4.93-1.036,5.311-1.489c-.418-.42-2.262-1.17-5.418-1.037S3450.855,3252.622,3450.475,3253.074Zm-.061.093Z" transform="translate(-594.348 -242.806)" fill="#d06eff"/>
    <g id="Group_1667" data-name="Group 1667" transform="translate(2778.164 3011.2)">
      <path id="Path_2290" data-name="Path 2290" d="M2862.285,3298.964a1.252,1.252,0,0,1-.642-.177l-13.408-7.992a1.257,1.257,0,0,1,1.287-2.159l13.408,7.991a1.257,1.257,0,0,1-.645,2.336Z" transform="translate(-2847.622 -3288.459)" fill="#d06eff"/>
    </g>
    <path id="Path_2291" data-name="Path 2291" d="M2776.75,3256.65q-.4,0-.8-.017c-3.816-.161-7.874-1.515-7.765-4.107s4.268-3.6,8.083-3.438a15.117,15.117,0,0,1,5.124,1.035c2.368,1.01,2.67,2.358,2.64,3.071s-.446,2.031-2.889,2.838A14.405,14.405,0,0,1,2776.75,3256.65Zm-6-4.016c.381.452,2.162,1.355,5.311,1.489s5-.618,5.416-1.037c-.381-.453-2.163-1.356-5.31-1.488S2771.165,3252.214,2770.748,3252.634Zm10.8.363Z" transform="translate(0 -242.818)" fill="#d06eff"/>
    <g id="Group_1668" data-name="Group 1668" transform="translate(2805.286 3010.58)">
      <path id="Path_2292" data-name="Path 2292" d="M3162.091,3298.416a1.256,1.256,0,0,1-1.256-1.256v-4.315a3.417,3.417,0,0,1,3.414-3.413h8.678l-1.38-4.272a1.255,1.255,0,1,1,2.389-.772l1.912,5.914a1.255,1.255,0,0,1-1.2,1.643h-10.4a.9.9,0,0,0-.9.9v4.315A1.256,1.256,0,0,1,3162.091,3298.416Z" transform="translate(-3148.614 -3283.517)" fill="#d06eff"/>
      <path id="Path_2293" data-name="Path 2293" d="M3077.021,3298.8a1.256,1.256,0,0,1-1.256-1.256v-4.316a.9.9,0,0,0-.9-.9H3064.8a1.255,1.255,0,0,1-1.208-1.6l1.674-5.862a1.256,1.256,0,1,1,2.415.689l-1.217,4.261h8.4a3.417,3.417,0,0,1,3.414,3.412v4.316A1.256,1.256,0,0,1,3077.021,3298.8Z" transform="translate(-3063.545 -3283.897)" fill="#d06eff"/>
    </g>
    <path id="Path_2294" data-name="Path 2294" d="M3033.039,3209.9h-35.171a4.466,4.466,0,0,1-3.812-1.769,6.436,6.436,0,0,1-.526-5.753l3.888-12.039c1.866-5.255,7.631-8.073,12.114-8.073h11.844c4.482,0,10.248,2.818,12.1,8.038l3.9,12.065a6.438,6.438,0,0,1-.524,5.762A4.462,4.462,0,0,1,3033.039,3209.9Zm-23.507-25.122c-3.674,0-8.32,2.382-9.735,6.367l-3.874,12a4.14,4.14,0,0,0,.16,3.5,2.048,2.048,0,0,0,1.785.743h35.171a2.047,2.047,0,0,0,1.785-.743,4.153,4.153,0,0,0,.158-3.512l-3.882-12.022c-1.4-3.951-6.05-6.333-9.724-6.333Z" transform="translate(-196.672 -184.405)" fill="#d06eff"/>
  </g>
</svg>
