<svg id="Component_11_1" data-name="Component 11 – 1" xmlns="http://www.w3.org/2000/svg" width="128" height="128" viewBox="0 0 128 128">
  <rect id="lilly-rum-oAapTASnOgc-unsplash" width="128" height="128" rx="15" fill="#d06eff" opacity="0.06"/>
  <g id="Group_1634" data-name="Group 1634" transform="translate(-4127.239 -1540.465)">
    <g id="Group_1631" data-name="Group 1631" transform="translate(4199.204 1564.522)">
      <path id="Path_2194" data-name="Path 2194" d="M4694.783,2075.836a1.266,1.266,0,0,1-1.267-1.267v-17.493a1.267,1.267,0,1,1,2.534,0v17.493A1.266,1.266,0,0,1,4694.783,2075.836Z" transform="translate(-4672.265 -1995.199)" fill="#d06eff"/>
      <g id="Group_1630" data-name="Group 1630" transform="translate(0)">
        <path id="Path_2195" data-name="Path 2195" d="M4587.406,1900.063h-19.333a1.267,1.267,0,0,1,0-2.534h17.939l-2.055-21.572a1.266,1.266,0,0,1,1.261-1.387h1.094a1.267,1.267,0,0,1,.3,2.5l2.057,21.607a1.265,1.265,0,0,1-1.26,1.387Z" transform="translate(-4561.607 -1836.919)" fill="#d06eff"/>
        <path id="Path_2196" data-name="Path 2196" d="M4634.373,2075.836a1.266,1.266,0,0,1-1.267-1.267v-17.493a1.267,1.267,0,1,1,2.534,0v17.493A1.266,1.266,0,0,1,4634.373,2075.836Z" transform="translate(-4619.507 -1995.199)" fill="#d06eff"/>
        <path id="Path_2197" data-name="Path 2197" d="M4573.962,2075.836a1.266,1.266,0,0,1-1.267-1.267v-17.493a1.267,1.267,0,1,1,2.534,0v17.493A1.266,1.266,0,0,1,4573.962,2075.836Z" transform="translate(-4566.749 -1995.199)" fill="#d06eff"/>
        <path id="Path_2198" data-name="Path 2198" d="M4605.551,1794.425h-2.187a1.267,1.267,0,0,1,0-2.534h.809l-1.458-17.235c-1.149-6.524-4.875-9.75-11.377-9.75h-2.187a13.884,13.884,0,0,0-4.863.789,1.267,1.267,0,0,1-.888-2.373,16.394,16.394,0,0,1,5.751-.949h2.187c7.714,0,12.516,4.135,13.888,11.957l1.587,18.722a1.266,1.266,0,0,1-1.262,1.373Z" transform="translate(-4575.379 -1738.935)" fill="#d06eff"/>
        <g id="Group_1629" data-name="Group 1629">
          <g id="Group_1628" data-name="Group 1628" transform="translate(7.561 4.356)">
            <path id="Path_2199" data-name="Path 2199" d="M4592.728,1628.49c-4.285,0-7.279-3.443-7.279-8.373s2.994-8.373,7.279-8.373a1.267,1.267,0,1,1,0,2.534c-3.5,0-4.745,3.146-4.745,5.84s1.243,5.84,4.745,5.84,4.747-3.146,4.747-5.84a7.775,7.775,0,0,0-.506-2.87,1.267,1.267,0,0,1,2.357-.93,10.335,10.335,0,0,1,.682,3.8C4600.008,1625.046,4597.015,1628.49,4592.728,1628.49Z" transform="translate(-4585.449 -1611.742)" fill="#d06eff"/>
            <path id="Path_2200" data-name="Path 2200" d="M4639.678,1618.027a7.041,7.041,0,0,1-6.592-4.609,1.267,1.267,0,1,1,2.393-.834,4.531,4.531,0,0,0,4.2,2.909,1.267,1.267,0,1,1,0,2.534Z" transform="translate(-4626.99 -1611.734)" fill="#d06eff"/>
          </g>
          <path id="Path_2201" data-name="Path 2201" d="M4554.107,1598.3a3.552,3.552,0,0,1-2.53-1.013c-1.939-1.886-1.959-5.85-1.973-8.743,0-.4,0-.763-.012-1.08-.119-4.757-2.417-7.3-6.834-7.548l-2.949-.032h-.065c-3.073,0-7.946,2.046-8.138,7.591-.011.348-.015.754-.018,1.2-.026,2.856-.061,6.767-1.978,8.622a3.492,3.492,0,0,1-2.614,1,1.267,1.267,0,0,1-1.237-1.3,1.241,1.241,0,0,1,1.3-1.236,1.016,1.016,0,0,0,.792-.291c1.154-1.118,1.187-4.83,1.206-6.825,0-.468.007-.9.021-1.262.251-7.334,6.644-10.038,10.675-10.038h.087l3.008.034c3.413.194,9.074,1.749,9.28,10.016.008.332.01.714.013,1.131.01,2.025.028,5.794,1.2,6.939a1.055,1.055,0,0,0,.8.3,1.253,1.253,0,0,1,1.3,1.236,1.267,1.267,0,0,1-1.237,1.3Z" transform="translate(-4525.759 -1577.349)" fill="#d06eff"/>
        </g>
      </g>
    </g>
    <path id="Path_2202" data-name="Path 2202" d="M4155.636,1798.132H4153.1a1.266,1.266,0,0,1-1.267-1.267v-20.653a13.677,13.677,0,0,1,13.77-13.551h5.232a1.267,1.267,0,0,1,0,2.533h-5.232a11.141,11.141,0,0,0-11.236,11.018V1795.6h1.267a1.267,1.267,0,0,1,0,2.533Z" transform="translate(0 -174.664)" fill="#d06eff"/>
    <path id="Path_2203" data-name="Path 2203" d="M4194.915,1934.466a1.266,1.266,0,0,1-1.267-1.267v-38.006a1.267,1.267,0,0,1,.079-2.532h1.188a1.266,1.266,0,0,1,1.267,1.267V1933.2A1.266,1.266,0,0,1,4194.915,1934.466Z" transform="translate(-35.479 -288.196)" fill="#d06eff"/>
    <path id="Path_2204" data-name="Path 2204" d="M4288.386,2082.935a1.266,1.266,0,0,1-1.267-1.267v-17.735a1.267,1.267,0,1,1,2.534,0v17.735A1.266,1.266,0,0,1,4288.386,2082.935Z" transform="translate(-118.146 -436.665)" fill="#d06eff"/>
    <path id="Path_2205" data-name="Path 2205" d="M4229.671,1620.4c-4.546,0-7.6-3.563-7.6-8.867s3.054-8.867,7.6-8.867,7.6,3.563,7.6,8.867S4234.217,1620.4,4229.671,1620.4Zm0-15.2c-3.736,0-5.067,3.272-5.067,6.334s1.331,6.334,5.067,6.334,5.067-3.272,5.067-6.334S4233.407,1605.195,4229.671,1605.195Z" transform="translate(-61.337 -34.933)" fill="#d06eff"/>
    <g id="Group_1632" data-name="Group 1632" transform="translate(4171.122 1562.661)">
      <path id="Path_2206" data-name="Path 2206" d="M4363.336,2082.926a1.266,1.266,0,0,1-1.267-1.267v-17.736a1.267,1.267,0,1,1,2.534,0v17.736A1.266,1.266,0,0,1,4363.336,2082.926Z" transform="translate(-4354.724 -1999.317)" fill="#d06eff"/>
      <path id="Path_2207" data-name="Path 2207" d="M4523.336,2083.114a1.266,1.266,0,0,1-1.267-1.267v-17.709a1.267,1.267,0,0,1,2.534,0v17.709A1.266,1.266,0,0,1,4523.336,2083.114Z" transform="translate(-4494.456 -1999.505)" fill="#d06eff"/>
      <path id="Path_2208" data-name="Path 2208" d="M4443.337,2170.258a1.266,1.266,0,0,1-1.267-1.267v-5.068a1.267,1.267,0,1,1,2.534,0v5.068A1.266,1.266,0,0,1,4443.337,2170.258Z" transform="translate(-4424.59 -2086.649)" fill="#d06eff"/>
      <path id="Path_2209" data-name="Path 2209" d="M4340.327,1757.46a1.266,1.266,0,0,1-1.249-1.061c-1.1-6.7-6.1-11.2-12.449-11.2h-7.6c-6.3,0-11.3,4.458-12.431,11.094a1.266,1.266,0,1,1-2.5-.427c1.35-7.9,7.349-13.2,14.928-13.2h7.6c7.634,0,13.641,5.355,14.948,13.327a1.266,1.266,0,0,1-1.044,1.455A1.294,1.294,0,0,1,4340.327,1757.46Z" transform="translate(-4304.083 -1719.859)" fill="#d06eff"/>
      <path id="Path_2210" data-name="Path 2210" d="M4390.937,1582.93c-5.3,0-8.867-4.073-8.867-10.134s3.564-10.134,8.867-10.134,8.868,4.073,8.868,10.134S4396.241,1582.93,4390.937,1582.93Zm0-17.735c-4.675,0-6.333,4.094-6.333,7.6s1.659,7.6,6.333,7.6,6.334-4.094,6.334-7.6S4395.612,1565.195,4390.937,1565.195Z" transform="translate(-4372.19 -1562.661)" fill="#d06eff"/>
    </g>
    <g id="Group_1633" data-name="Group 1633" transform="translate(4167.172 1594.941)">
      <path id="Path_2211" data-name="Path 2211" d="M4305.819,1979.787a1.263,1.263,0,0,1-.6-.15c-.627-.335-15.439-8.348-20.473-19.453a1.267,1.267,0,1,1,2.309-1.047c4.142,9.14,15.993,16.343,18.771,17.937,2.844-1.581,15.129-8.84,19-18.287a1.267,1.267,0,0,1,2.343.963c-4.727,11.523-20.124,19.56-20.777,19.9A1.26,1.26,0,0,1,4305.819,1979.787Z" transform="translate(-4283.148 -1940.2)" fill="#d06eff"/>
      <path id="Path_2212" data-name="Path 2212" d="M4316.958,1830.514a1.269,1.269,0,0,1-1.26-1.139,10.4,10.4,0,0,0-10.38-9.365c-3.878,0-7.373,4.632-8.7,6.623a1.316,1.316,0,0,1-2.11,0c-1.322-1.991-4.817-6.623-8.7-6.623a10.455,10.455,0,0,0-10.391,9.354,1.25,1.25,0,0,1-1.378,1.146,1.268,1.268,0,0,1-1.146-1.379,13.01,13.01,0,0,1,12.914-11.655c4.146,0,7.612,3.45,9.751,6.268,2.139-2.819,5.6-6.268,9.75-6.268a12.925,12.925,0,0,1,12.9,11.644,1.268,1.268,0,0,1-1.133,1.389C4317.043,1830.512,4317,1830.514,4316.958,1830.514Z" transform="translate(-4272.897 -1817.476)" fill="#d06eff"/>
    </g>
    <path id="Path_2213" data-name="Path 2213" d="M4255.364,1911.456a3.611,3.611,0,0,1-1.211-.186,2.662,2.662,0,0,1-1.769-2.222l-.6-3.752a2.7,2.7,0,0,1,.979-2.67,4.845,4.845,0,0,1,2.287-.859c3.287-.521,4.065,1.239,4.24,2.334l.6,3.753a2.655,2.655,0,0,1-1,2.662,4.878,4.878,0,0,1-2.231.818l-.011,0A8.153,8.153,0,0,1,4255.364,1911.456Zm.874-7.262a4.918,4.918,0,0,0-.745.069c-1.273.2-1.237.432-1.2.635l.6,3.752a.563.563,0,0,0,.064.215s.227.144,1.221-.015l.049-.011c.989-.157,1.166-.359,1.177-.374h0a.7.7,0,0,0-.009-.213l-.6-3.753c-.035-.219-.078-.234-.123-.251A1.306,1.306,0,0,0,4256.237,1904.194Z" transform="translate(-87.251 -296.067)" fill="#d06eff"/>
    <path id="Path_2214" data-name="Path 2214" d="M4592.536,1911.43a7.481,7.481,0,0,1-1.188-.106c-.018,0-.053-.01-.084-.016a4.879,4.879,0,0,1-2.237-.819,2.653,2.653,0,0,1-1-2.662l.6-3.753c.174-1.095.952-2.854,4.2-2.34,3.291.523,3.483,2.439,3.308,3.535l-.6,3.752a2.663,2.663,0,0,1-1.77,2.222A3.674,3.674,0,0,1,4592.536,1911.43Zm-.862-7.263a1.264,1.264,0,0,0-.425.053c-.045.017-.088.032-.123.251l-.6,3.753a.554.554,0,0,0-.005.22s.167.205,1.173.366c.026,0,.053.009.079.015l.049.011c.9.142,1.131,0,1.146-.006a.63.63,0,0,0,.06-.209l.6-3.752c.032-.2.068-.432-1.161-.629A5.277,5.277,0,0,0,4591.674,1904.167Z" transform="translate(-380.897 -296.038)" fill="#d06eff"/>
  </g>
</svg>
