<svg id="Component_10_1" data-name="Component 10 – 1" xmlns="http://www.w3.org/2000/svg" width="128" height="128" viewBox="0 0 128 128">
  <rect id="lilly-rum-oAapTASnOgc-unsplash" width="128" height="128" rx="15" fill="#d06eff" opacity="0.06"/>
  <g id="no_fake_news" transform="translate(-265 -153)">
    <path id="Vector" d="M14.412,9.608v5.813a5.777,5.777,0,0,1-6.2,6.2H0V4.828A4.849,4.849,0,0,1,4.852,0a9.6,9.6,0,0,1,9.56,9.608Z" transform="translate(338.433 192.804)" fill="none" stroke="#d06eff" stroke-linecap="round" stroke-linejoin="round" stroke-width="3"/>
    <path id="Vector-2" data-name="Vector" d="M0,12.01V45.639a2.394,2.394,0,0,0,3.843,1.922l4.108-3.075a2.42,2.42,0,0,1,3.171.24l3.987,4.011a2.421,2.421,0,0,0,3.411,0L22.555,44.7a2.381,2.381,0,0,1,3.123-.216l4.108,3.075a2.407,2.407,0,0,0,3.843-1.922V4.8a4.818,4.818,0,0,1,4.8-4.8H9.608C2.4,0,0,4.3,0,9.608Z" transform="translate(304.804 192.804)" fill="none" stroke="#d06eff" stroke-linecap="round" stroke-linejoin="round" stroke-width="3"/>
    <path id="Vector-3" data-name="Vector" d="M0,0H7.206" transform="translate(321.618 219.251)" fill="none" stroke="#d06eff" stroke-linecap="round" stroke-linejoin="round" stroke-width="3"/>
    <path id="Vector-4" data-name="Vector" d="M0,0H7.206" transform="translate(321.618 209.642)" fill="none" stroke="#d06eff" stroke-linecap="round" stroke-linejoin="round" stroke-width="3"/>
    <path id="Vector-5" data-name="Vector" d="M0,0H57.649V57.649H0Z" transform="translate(300 188)" fill="none" opacity="0"/>
    <path id="Vector-6" data-name="Vector" d="M0,0H.022" transform="translate(314.402 219.227)" fill="none" stroke="#d06eff" stroke-linecap="round" stroke-linejoin="round" stroke-width="3"/>
    <path id="Vector-7" data-name="Vector" d="M0,0H.022" transform="translate(314.402 209.618)" fill="none" stroke="#d06eff" stroke-linecap="round" stroke-linejoin="round" stroke-width="3"/>
  </g>
</svg>
