<svg xmlns="http://www.w3.org/2000/svg" xmlns:xlink="http://www.w3.org/1999/xlink" width="324.388" height="58.404" viewBox="0 0 324.388 58.404">
  <defs>
    <filter id="pexels-anna-shvets-5325922" x="0" y="0" width="324.388" height="58.404" filterUnits="userSpaceOnUse">
      <feOffset dy="3" input="SourceAlpha"/>
      <feGaussianBlur stdDeviation="9" result="blur"/>
      <feFlood flood-opacity="0.102"/>
      <feComposite operator="in" in2="blur"/>
      <feComposite in="SourceGraphic"/>
    </filter>
  </defs>
  <g transform="matrix(1, 0, 0, 1, 0, 0)" filter="url(#pexels-anna-shvets-5325922)">
    <g id="pexels-anna-shvets-5325922-2" data-name="pexels-anna-shvets-5325922" transform="translate(27 24)" fill="#fff">
      <path d="M2.2,0H268.186a2.2,2.2,0,0,1,0,4.4H2.2A2.2,2.2,0,0,1,2.2,0Z" stroke="none"/>
      <path d="M 2.20184326171875 1.096725463867188e-05 L 268.1862182617188 1.096725463867188e-05 C 269.4022521972656 1.096725463867188e-05 270.3880615234375 0.98581862449646 270.3880615234375 2.201857089996338 C 270.3880615234375 3.417895555496216 269.4022521972656 4.403703212738037 268.1862182617188 4.403703212738037 L 2.20184326171875 4.403703212738037 C 0.985809326171875 4.403703212738037 0 3.417895555496216 0 2.201857089996338 C 0 0.98581862449646 0.985809326171875 1.096725463867188e-05 2.20184326171875 1.096725463867188e-05 Z" stroke="none" fill="#fff"/>
    </g>
  </g>
</svg>
