<svg id="Component_11_1" data-name="Component 11 – 1" xmlns="http://www.w3.org/2000/svg" width="128" height="128" viewBox="0 0 128 128">
  <rect id="lilly-rum-oAapTASnOgc-unsplash" width="128" height="128" rx="15" fill="#d06eff" opacity="0.06"/>
  <g id="Group_1720" data-name="Group 1720" transform="translate(-301.301 -1547.091)">
    <g id="Group_1718" data-name="Group 1718" transform="translate(321.67 1591.027)">
      <path id="Path_2371" data-name="Path 2371" d="M453.481,1803.129a1.994,1.994,0,0,1-1.789-1.1c-4.443-8.373-12.128-12.459-17.214-15.162a37.649,37.649,0,0,1-3.568-2.043,28.4,28.4,0,0,1-4.454-3.491,1.264,1.264,0,0,1,1.748-1.827,26.11,26.11,0,0,0,4.1,3.212,36.32,36.32,0,0,0,3.356,1.917c4.863,2.585,12.89,6.853,17.773,15.33,4.736-8.561,12.649-12.969,17.443-15.636a36.632,36.632,0,0,0,3.255-1.939,30.258,30.258,0,0,0,10.28-12.141l.132-.254a21.109,21.109,0,0,0,1.538-11.727c-1.281-7.367-7.881-11.93-10.876-12.979-5.666-1.982-10.459-1.988-14.245-.025a14.261,14.261,0,0,0-6.612,7.923,1.264,1.264,0,0,1-1.193.917,1.3,1.3,0,0,1-1.225-.875,14.787,14.787,0,0,0-7.011-7.857c-3.876-1.87-8.682-1.77-14.288.3-2.145.795-8.668,4.712-10.415,12.018a1.264,1.264,0,0,1-2.459-.588c2.014-8.42,9.343-12.817,12-13.8,6.291-2.319,11.774-2.381,16.3-.183a16.651,16.651,0,0,1,7.029,6.665,16.21,16.21,0,0,1,6.716-6.759c4.429-2.3,9.895-2.336,16.244-.117,2.745.962,10.939,5.776,12.538,14.972a23.931,23.931,0,0,1-1.751,13.2l-.168.332a32.516,32.516,0,0,1-11.093,13.065,37.873,37.873,0,0,1-3.46,2.067c-5,2.784-12.546,6.986-16.867,15.414a1.858,1.858,0,0,1-1.584,1.174C453.6,1803.126,453.54,1803.129,453.481,1803.129Zm-.61-2.047h0Zm1.06-.232a.146.146,0,0,1,.008.015A.146.146,0,0,0,453.93,1800.85Z" transform="translate(-405.584 -1741.261)" fill="#d06eff"/>
      <g id="Group_1717" data-name="Group 1717" transform="translate(0 14.913)">
        <g id="Group_1716" data-name="Group 1716">
          <g id="Group_1715" data-name="Group 1715">
            <path id="Path_2372" data-name="Path 2372" d="M335.11,1885.691h-7.066a6.381,6.381,0,0,1-6.374-6.374V1865.6a6.381,6.381,0,0,1,6.374-6.374h7.066a6.381,6.381,0,0,1,6.374,6.374v1.6h26.659a1.264,1.264,0,0,1,0,2.528H340.22a1.264,1.264,0,0,1-1.264-1.264V1865.6a3.85,3.85,0,0,0-3.846-3.845h-7.066a3.85,3.85,0,0,0-3.846,3.845v13.714a3.85,3.85,0,0,0,3.846,3.846h7.066a3.85,3.85,0,0,0,3.846-3.846v-2.868a1.264,1.264,0,0,1,1.264-1.264H370.8a1.264,1.264,0,1,1,0,2.528H341.484v1.6A6.381,6.381,0,0,1,335.11,1885.691Z" transform="translate(-321.67 -1859.229)" fill="#d06eff"/>
            <path id="Path_2373" data-name="Path 2373" d="M370.327,1917.124h-3.989a2.6,2.6,0,0,1-2.594-2.594v-10.637a2.6,2.6,0,0,1,2.594-2.595h3.989a2.6,2.6,0,0,1,2.594,2.595v10.637A2.6,2.6,0,0,1,370.327,1917.124Zm-3.989-13.3-.065,10.7,4.054.065.065-10.7-.065-.067Z" transform="translate(-358.426 -1895.981)" fill="#d06eff"/>
          </g>
          <path id="Path_2374" data-name="Path 2374" d="M653.737,1940h-9.075a1.264,1.264,0,0,1-1.239-1.513l1.268-6.316a1.264,1.264,0,0,1,2.479.5l-.965,4.8h5.99l-1.152-5.763a1.262,1.262,0,0,1,.378-1.173,3.236,3.236,0,0,0,1.052-2.388,3.276,3.276,0,0,0-3.273-3.273,1.264,1.264,0,0,1,0-2.528,5.808,5.808,0,0,1,5.8,5.8,5.709,5.709,0,0,1-1.351,3.7l1.326,6.634a1.264,1.264,0,0,1-1.239,1.512Z" transform="translate(-602.727 -1914.365)" fill="#d06eff"/>
        </g>
        <path id="Path_2375" data-name="Path 2375" d="M665.325,1897.554a1.264,1.264,0,0,1-1.015-2.017,8.142,8.142,0,0,0-9.87-12.272,1.264,1.264,0,0,1-1.035-2.307,10.67,10.67,0,0,1,12.937,16.085A1.263,1.263,0,0,1,665.325,1897.554Z" transform="translate(-610.817 -1877.4)" fill="#d06eff"/>
      </g>
    </g>
    <g id="Group_1719" data-name="Group 1719" transform="translate(334.792 1569.287)">
      <path id="Path_2376" data-name="Path 2376" d="M689.394,1580.478a1.264,1.264,0,0,1-1.264-1.264v-8.663a1.264,1.264,0,1,1,2.528,0v8.663A1.264,1.264,0,0,1,689.394,1580.478Z" transform="translate(-654.926 -1569.287)" fill="#d06eff"/>
      <path id="Path_2377" data-name="Path 2377" d="M906.372,1668.957a1.264,1.264,0,0,1-.894-2.158l5.775-5.775a1.264,1.264,0,0,1,1.787,1.788l-5.774,5.774A1.26,1.26,0,0,1,906.372,1668.957Z" transform="translate(-844.475 -1649.104)" fill="#d06eff"/>
      <path id="Path_2378" data-name="Path 2378" d="M432.513,1668.957a1.26,1.26,0,0,1-.894-.37l-5.775-5.774a1.264,1.264,0,0,1,1.788-1.788l5.775,5.775a1.264,1.264,0,0,1-.894,2.158Z" transform="translate(-425.474 -1649.104)" fill="#d06eff"/>
    </g>
  </g>
</svg>
