<svg id="Component_11_1" data-name="Component 11 – 1" xmlns="http://www.w3.org/2000/svg" width="128" height="128" viewBox="0 0 128 128">
  <rect id="lilly-rum-oAapTASnOgc-unsplash" width="128" height="128" rx="15" fill="#d06eff" opacity="0.06"/>
  <g id="Group_1522" data-name="Group 1522" transform="translate(-2537.065 -886.317)">
    <path id="Path_1961" data-name="Path 1961" d="M2619.805,992.122a1.268,1.268,0,0,1-1.268-1.268v-10.86a13.626,13.626,0,0,1,.707-4.335l6.523-19.477,6.017-32.14a2.634,2.634,0,1,0-5.163-1.046c-.007.037-.016.073-.026.108l-6.676,22.791a1.268,1.268,0,0,1-2.485-.4l.909-28.948c0-.024,0-.048,0-.072a2.634,2.634,0,0,0-5.248-.465c0,.029-.006.058-.01.086l-4.689,29.638a1.268,1.268,0,0,1-2.52-.137l-1.534-31.854c0-.021,0-.041,0-.061a2.634,2.634,0,0,0-5.268,0c0,.03,0,.06,0,.091l-2.279,31.854a1.268,1.268,0,0,1-2.522.076l-4.039-30.4c0-.026-.006-.052-.008-.078a2.634,2.634,0,0,0-5.255.367l0,.033,1.756,40.545a1.268,1.268,0,0,1-2.252.854l-9.406-11.593-.045-.058a2.618,2.618,0,0,0-3.711-.554,2.632,2.632,0,0,0-.528,3.629c.026.036.05.073.072.111l8.763,15.056a23.549,23.549,0,0,0,5.387,6.343l4.032,3.325a13.607,13.607,0,0,1,4.966,10.532v7.04a1.268,1.268,0,1,1-2.536,0v-7.04a11.081,11.081,0,0,0-4.043-8.576l-4.031-3.325a26.08,26.08,0,0,1-5.966-7.024l-8.732-15a5.182,5.182,0,0,1,1.081-7.086,5.155,5.155,0,0,1,7.283,1.059l6.967,8.587-1.589-36.7a5.17,5.17,0,0,1,10.313-.745l2.4,18.055,1.39-19.424a5.17,5.17,0,0,1,10.34.016l.94,19.514,2.756-17.423a5.17,5.17,0,0,1,10.3.921l-.6,18.971,3.865-13.193a5.17,5.17,0,0,1,10.128,2.082l-6.03,32.211a1.239,1.239,0,0,1-.044.169l-6.551,19.56a11.1,11.1,0,0,0-.575,3.53v10.86A1.268,1.268,0,0,1,2619.805,992.122Z" transform="translate(0)" fill="#d06eff"/>
    <g id="Group_1521" data-name="Group 1521" transform="translate(2590.68 952.712)">
      <rect id="Rectangle_99" data-name="Rectangle 99" width="2.408" height="16.12" transform="translate(11.221)" fill="#d06eff"/>
      <rect id="Rectangle_100" data-name="Rectangle 100" width="1.173" height="16.12" transform="translate(14.606)" fill="#d06eff"/>
      <rect id="Rectangle_101" data-name="Rectangle 101" width="5.544" height="16.12" transform="translate(18.591)" fill="#d06eff"/>
      <rect id="Rectangle_102" data-name="Rectangle 102" width="1.774" height="16.12" transform="translate(26.131)" fill="#d06eff"/>
      <rect id="Rectangle_103" data-name="Rectangle 103" width="4.436" height="16.12" transform="translate(0)" fill="#d06eff"/>
      <rect id="Rectangle_104" data-name="Rectangle 104" width="1.774" height="16.12" transform="translate(5.59)" fill="#d06eff"/>
    </g>
  </g>
</svg>
