<svg id="Component_12_1" data-name="Component 12 – 1" xmlns="http://www.w3.org/2000/svg" width="128" height="128" viewBox="0 0 128 128">
  <rect id="lilly-rum-oAapTASnOgc-unsplash" width="128" height="128" rx="15" fill="#d06eff" opacity="0.06"/>
  <path id="Path_2587" data-name="Path 2587" d="M235,236h9.109l-1.822,5.465" transform="translate(-172.098 -172)" fill="none" stroke="#d06eff" stroke-miterlimit="10" stroke-width="3"/>
  <path id="Path_2588" data-name="Path 2588" d="M251.17,224.27l3.48,12.753a8.692,8.692,0,0,1-.6,6.085,1.427,1.427,0,0,0,.036,1.4l6.285,11.022a4.4,4.4,0,0,1,.6,2.241A3.119,3.119,0,0,1,258.6,260.8l-4.919,1.239-.4,3.644h-4.442a5.466,5.466,0,0,0-5.3,4.139l-.787,3.148h9.729c-.508,4.613-.106,10.931-6.085,10.931a21.651,21.651,0,0,1-6.989-1.159,7.356,7.356,0,0,0-9.408,4.8" transform="translate(-176.207 -181.64)" fill="none" stroke="#d06eff" stroke-miterlimit="10" stroke-width="3"/>
  <line id="Line_111" data-name="Line 111" y2="19" transform="translate(92 80.098)" fill="none" stroke="#d06eff" stroke-miterlimit="10" stroke-width="3"/>
  <line id="Line_112" data-name="Line 112" y2="4" transform="translate(107 95.098)" fill="none" stroke="#d06eff" stroke-miterlimit="10" stroke-width="3"/>
  <line id="Line_113" data-name="Line 113" y2="11" transform="translate(107 80.098)" fill="none" stroke="#d06eff" stroke-miterlimit="10" stroke-width="3"/>
  <line id="Line_114" data-name="Line 114" x2="15.777" y2="9.109" transform="translate(84.163 84.951)" fill="none" stroke="#d06eff" stroke-miterlimit="10" stroke-width="3"/>
  <line id="Line_115" data-name="Line 115" x1="15.777" y2="9.109" transform="translate(84.163 84.951)" fill="none" stroke="#d06eff" stroke-miterlimit="10" stroke-width="3"/>
  <line id="Line_116" data-name="Line 116" x2="11" y2="3" transform="translate(63 55.098)" fill="none" stroke="#d06eff" stroke-miterlimit="10" stroke-width="3"/>
  <path id="Path_2589" data-name="Path 2589" d="M212,248.991c7.287,0,14.575-1.4,19.73-6.631" transform="translate(-191 -166.773)" fill="none" stroke="#d06eff" stroke-miterlimit="10" stroke-width="3"/>
  <path id="Path_2590" data-name="Path 2590" d="M213,224.223A34.515,34.515,0,0,1,238.506,213a42.135,42.135,0,0,1,19.676,4.719,17.474,17.474,0,0,0,11.022,1.968c1.33,1.33,2.1,2.423,2.1,6.067,0,9.109-18.018,11.678-25.506,12.753l-1.822,18.218h-5.465c-.4-1.84-2.1-7.287-7.287-7.287a5.458,5.458,0,0,0-5.465,5.465,5.528,5.528,0,0,0,.492,2.259L229.8,265c.958,2.061,3.243,2.66,5.065,2.66" transform="translate(-190.178 -190.902)" fill="none" stroke="#d06eff" stroke-miterlimit="10" stroke-width="3"/>
</svg>
